<?xml version="1.0" standalone="no"?>
<!DOCTYPE svg PUBLIC "-//W3C//DTD SVG 20010904//EN"
 "http://www.w3.org/TR/2001/REC-SVG-20010904/DTD/svg10.dtd">
<svg version="1.0" xmlns="http://www.w3.org/2000/svg"
 width="512.000000pt" height="683.000000pt" viewBox="0 0 512.000000 683.000000"
 preserveAspectRatio="xMidYMid meet">
<metadata>
Created by potrace 1.12, written by Peter Selinger 2001-2015
</metadata>
<g transform="translate(0.000000,683.000000) scale(0.100000,-0.100000)"
fill="#000000" stroke="none">
<path d="M0 3415 l0 -3415 2560 0 2560 0 0 2418 0 2417 -998 998 -997 997
-1563 0 -1562 0 0 -3415z m2842 1993 l3 -853 853 -3 852 -2 0 -1990 0 -1990
-1990 0 -1990 0 0 2845 0 2845 1135 0 1135 0 2 -852z"/>
<path d="M1422 3558 l3 -143 853 -3 852 -2 0 145 0 145 -855 0 -856 0 3 -142z"/>
<path d="M1420 2705 l0 -145 1140 0 1140 0 0 145 0 145 -1140 0 -1140 0 0
-145z"/>
<path d="M1420 1850 l0 -140 855 0 855 0 0 140 0 140 -855 0 -855 0 0 -140z"/>
</g>
</svg>
