<?xml version="1.0" standalone="no"?>
<!DOCTYPE svg PUBLIC "-//W3C//DTD SVG 20010904//EN"
 "http://www.w3.org/TR/2001/REC-SVG-20010904/DTD/svg10.dtd">
<svg version="1.0" xmlns="http://www.w3.org/2000/svg"
 width="512.000000pt" height="733.000000pt" viewBox="0 0 512.000000 733.000000"
 preserveAspectRatio="xMidYMid meet">
<metadata>
Created by potrace 1.12, written by Peter Selinger 2001-2015
</metadata>
<g transform="translate(0.000000,733.000000) scale(0.100000,-0.100000)"
fill="#000000" stroke="none">
<path d="M1575 7317 c-49 -19 -99 -53 -121 -84 -51 -68 -49 -49 -54 -558 l-5
-480 -130 -18 c-434 -58 -800 -146 -1012 -243 -98 -44 -185 -107 -220 -157
l-28 -40 0 -257 0 -257 26 -36 c162 -229 919 -410 1954 -467 243 -14 894 -14
1140 0 1044 57 1800 236 1964 466 l26 37 0 257 0 257 -26 38 c-15 20 -51 55
-80 77 -180 137 -668 269 -1231 334 l-147 17 -3 471 c-3 461 -3 472 -25 511
-25 47 -74 95 -123 121 -33 18 -79 19 -955 21 -689 1 -928 -1 -950 -10z m1566
-489 c8 -23 14 -119 17 -312 l4 -278 -109 7 c-153 10 -717 10 -975 1 l-218 -8
0 218 c0 213 9 324 30 378 l10 26 614 0 614 0 13 -32z"/>
<path d="M336 4385 c-9 -14 -19 -37 -22 -53 -7 -34 162 -3539 175 -3643 14
-110 50 -180 140 -269 207 -205 607 -334 1206 -389 368 -34 972 -39 1325 -11
686 54 1110 181 1331 400 88 88 125 157 139 263 15 105 183 3612 176 3650 -4
18 -16 43 -27 56 l-20 24 -28 -20 c-188 -140 -612 -207 -1456 -233 -434 -13
-996 -13 -1430 0 -799 24 -1239 89 -1421 210 -33 22 -62 40 -65 40 -4 0 -14
-11 -23 -25z"/>
</g>
</svg>
